<svg width="512" height="512" viewBox="0 0 512 512" fill="none" xmlns="http://www.w3.org/2000/svg">
    <style>
        @media (prefers-color-scheme: dark) {
            :root {
                fill: white;
            }
        }
    </style>

    <g clip-path="url(#clip0_56_2)">
    <path d="M-0.146306 355V157.545H52.0455V192.383H54.3594C58.473 180.813 65.3291 171.686 74.9276 165.001C84.526 158.317 96.0099 154.974 109.379 154.974C122.92 154.974 134.447 158.36 143.96 165.13C153.472 171.815 159.814 180.899 162.985 192.383H165.042C169.07 181.07 176.354 172.029 186.896 165.259C197.522 158.402 210.078 154.974 224.561 154.974C242.987 154.974 257.942 160.845 269.425 172.586C280.995 184.241 286.78 200.781 286.78 222.207V355H232.146V233.005C232.146 222.035 229.232 213.808 223.404 208.323C217.576 202.838 210.292 200.096 201.55 200.096C191.609 200.096 183.853 203.267 178.283 209.609C172.712 215.865 169.927 224.135 169.927 234.419V355H116.835V231.848C116.835 222.164 114.05 214.451 108.479 208.709C102.995 202.967 95.7528 200.096 86.7543 200.096C80.6695 200.096 75.1847 201.638 70.2997 204.724C65.5005 207.723 61.6868 211.965 58.8587 217.45C56.0305 222.849 54.6165 229.191 54.6165 236.476V355H-0.146306ZM384.8 240.847V355H330.037V157.545H382.229V192.383H384.543C388.914 180.899 396.241 171.815 406.525 165.13C416.809 158.36 429.279 154.974 443.934 154.974C457.646 154.974 469.601 157.974 479.799 163.973C489.998 169.972 497.925 178.542 503.581 189.683C509.238 200.739 512.066 213.937 512.066 229.277V355H457.303V239.047C457.389 226.963 454.303 217.536 448.047 210.766C441.791 203.91 433.178 200.482 422.208 200.482C414.838 200.482 408.325 202.067 402.669 205.238C397.098 208.409 392.727 213.037 389.556 219.121C386.471 225.121 384.886 232.362 384.8 240.847Z" fill="#161618"/>
    </g>
    <defs>
    <clipPath id="clip0_56_2">
    <rect width="512" height="512" fill="white"/>
    </clipPath>
    </defs>
</svg>
